<svg width="25" height="21" viewBox="0 0 25 21" fill="none" xmlns="http://www.w3.org/2000/svg">
<path d="M1.71 20.53C1.51667 20.53 1.33333 20.5233 1.16 20.51C0.986667 20.5033 0.843333 20.49 0.73 20.47V18.51C0.836667 18.5367 0.98 18.56 1.16 18.58C1.33333 18.6 1.51667 18.61 1.71 18.61C2.08333 18.61 2.38 18.5567 2.6 18.45C2.82 18.3433 2.98333 18.2033 3.09 18.03C3.20333 17.8567 3.28 17.6667 3.32 17.46C3.36 17.26 3.38 17.06 3.38 16.86V5.38H6.01V16.94C6.01 17.38 5.95667 17.81 5.85 18.23C5.75 18.6567 5.55333 19.0433 5.26 19.39C4.97333 19.7367 4.54333 20.0133 3.97 20.22C3.40333 20.4267 2.65 20.53 1.71 20.53ZM4.73 3.42C4.30333 3.42 3.93 3.30667 3.61 3.08C3.29667 2.84667 3.14 2.52333 3.14 2.11C3.14 1.70333 3.29667 1.38667 3.61 1.16C3.93 0.933332 4.30333 0.819999 4.73 0.819999C5.15667 0.819999 5.52667 0.933332 5.84 1.16C6.15333 1.38667 6.31 1.70333 6.31 2.11C6.31 2.52333 6.15333 2.84667 5.84 3.08C5.52667 3.30667 5.15667 3.42 4.73 3.42ZM12.6925 7.64L12.6625 9.78L7.9225 1.25H10.8725L14.3025 8.01H13.1125L16.5125 1.25H19.4725L14.7625 9.78L14.7425 7.64L19.6125 16H16.6525L13.0625 9.4H14.3525L10.7525 16H7.8025L12.6925 7.64ZM22.9055 16.28C22.4921 16.28 22.1421 16.1367 21.8555 15.85C21.5688 15.5633 21.4255 15.2133 21.4255 14.8C21.4255 14.3933 21.5688 14.0467 21.8555 13.76C22.1421 13.4667 22.4921 13.32 22.9055 13.32C23.3121 13.32 23.6588 13.4667 23.9455 13.76C24.2388 14.0467 24.3855 14.3933 24.3855 14.8C24.3855 15.2133 24.2388 15.5633 23.9455 15.85C23.6588 16.1367 23.3121 16.28 22.9055 16.28Z" fill="black"/>
</svg>
