<svg width="34" height="33" viewBox="0 0 34 33" fill="none" xmlns="http://www.w3.org/2000/svg">
<path d="M17 2.75C15.1943 2.75 13.4063 3.10565 11.7381 3.79666C10.0699 4.48766 8.55409 5.50048 7.27728 6.77728C4.69866 9.35591 3.25 12.8533 3.25 16.5C3.25 22.5775 7.19625 27.7337 12.655 29.5625C13.3425 29.6725 13.5625 29.2463 13.5625 28.875V26.5512C9.75375 27.3762 8.9425 24.7087 8.9425 24.7087C8.31 23.1137 7.41625 22.6875 7.41625 22.6875C6.165 21.835 7.5125 21.8625 7.5125 21.8625C8.8875 21.9587 9.61625 23.2788 9.61625 23.2788C10.8125 25.3687 12.8337 24.75 13.6175 24.42C13.7413 23.5263 14.0988 22.9212 14.4838 22.5775C11.4312 22.2337 8.2275 21.0513 8.2275 15.8125C8.2275 14.2863 8.75 13.0625 9.64375 12.0863C9.50625 11.7425 9.025 10.3125 9.78125 8.45625C9.78125 8.45625 10.9363 8.085 13.5625 9.85875C14.6488 9.55625 15.8313 9.405 17 9.405C18.1687 9.405 19.3512 9.55625 20.4375 9.85875C23.0637 8.085 24.2188 8.45625 24.2188 8.45625C24.975 10.3125 24.4937 11.7425 24.3563 12.0863C25.25 13.0625 25.7725 14.2863 25.7725 15.8125C25.7725 21.065 22.555 22.22 19.4888 22.5637C19.9838 22.99 20.4375 23.8288 20.4375 25.1075V28.875C20.4375 29.2463 20.6575 29.6863 21.3587 29.5625C26.8175 27.72 30.75 22.5775 30.75 16.5C30.75 14.6943 30.3943 12.9063 29.7033 11.2381C29.0123 9.56988 27.9995 8.05409 26.7227 6.77728C25.4459 5.50048 23.9301 4.48766 22.2619 3.79666C20.5937 3.10565 18.8057 2.75 17 2.75Z" fill="black"/>
</svg>
