<svg width="34" height="33" viewBox="0 0 34 33" fill="none" xmlns="http://www.w3.org/2000/svg">
<g clip-path="url(#clip0_43_902)">
<path d="M25.25 4.125C26.344 4.125 27.3932 4.5596 28.1668 5.33318C28.9404 6.10677 29.375 7.15598 29.375 8.25V24.75C29.375 25.844 28.9404 26.8932 28.1668 27.6668C27.3932 28.4404 26.344 28.875 25.25 28.875H8.75C7.65598 28.875 6.60677 28.4404 5.83318 27.6668C5.0596 26.8932 4.625 25.844 4.625 24.75V8.25C4.625 7.15598 5.0596 6.10677 5.83318 5.33318C6.60677 4.5596 7.65598 4.125 8.75 4.125H25.25ZM25.25 6.875H8.75C8.38533 6.875 8.03559 7.01987 7.77773 7.27773C7.51987 7.53559 7.375 7.88533 7.375 8.25V24.75C7.375 25.1147 7.51987 25.4644 7.77773 25.7223C8.03559 25.9801 8.38533 26.125 8.75 26.125H25.25C25.6147 26.125 25.9644 25.9801 26.2223 25.7223C26.4801 25.4644 26.625 25.1147 26.625 24.75V8.25C26.625 7.88533 26.4801 7.53559 26.2223 7.27773C25.9644 7.01987 25.6147 6.875 25.25 6.875ZM11.5 13.75C11.8368 13.75 12.1618 13.8737 12.4135 14.0975C12.6652 14.3213 12.826 14.6297 12.8654 14.9641L12.875 15.125V22C12.8746 22.3505 12.7404 22.6875 12.4998 22.9424C12.2593 23.1972 11.9304 23.3506 11.5806 23.3711C11.2307 23.3916 10.8862 23.2778 10.6175 23.0529C10.3487 22.8279 10.176 22.5089 10.1346 22.1609L10.125 22V15.125C10.125 14.7603 10.2699 14.4106 10.5277 14.1527C10.7856 13.8949 11.1353 13.75 11.5 13.75ZM15.625 12.375C15.947 12.375 16.2588 12.4879 16.5061 12.6942C16.7534 12.9005 16.9204 13.1871 16.978 13.5039C17.2547 13.3434 17.5407 13.1997 17.8346 13.0735C18.7518 12.6816 20.1254 12.4657 21.3656 12.8549C22.016 13.0611 22.6691 13.4461 23.1531 14.102C23.5863 14.6864 23.82 15.3973 23.8667 16.1961L23.875 16.5V22C23.8746 22.3505 23.7404 22.6875 23.4998 22.9424C23.2593 23.1972 22.9304 23.3506 22.5806 23.3711C22.2307 23.3916 21.8862 23.2778 21.6175 23.0529C21.3487 22.8279 21.176 22.5089 21.1346 22.1609L21.125 22V16.5C21.125 16.0463 21.015 15.8345 20.9435 15.7369C20.8409 15.6092 20.6994 15.5185 20.5406 15.4784C20.0621 15.3271 19.3732 15.4069 18.9154 15.6021C18.2279 15.8964 17.5981 16.3584 17.1691 16.786L17 16.9675V22C16.9996 22.3505 16.8654 22.6875 16.6248 22.9424C16.3843 23.1972 16.0554 23.3506 15.7056 23.3711C15.3557 23.3916 15.0112 23.2778 14.7425 23.0529C14.4737 22.8279 14.301 22.5089 14.2596 22.1609L14.25 22V13.75C14.25 13.3853 14.3949 13.0356 14.6527 12.7777C14.9106 12.5199 15.2603 12.375 15.625 12.375ZM11.5 9.625C11.8647 9.625 12.2144 9.76987 12.4723 10.0277C12.7301 10.2856 12.875 10.6353 12.875 11C12.875 11.3647 12.7301 11.7144 12.4723 11.9723C12.2144 12.2301 11.8647 12.375 11.5 12.375C11.1353 12.375 10.7856 12.2301 10.5277 11.9723C10.2699 11.7144 10.125 11.3647 10.125 11C10.125 10.6353 10.2699 10.2856 10.5277 10.0277C10.7856 9.76987 11.1353 9.625 11.5 9.625Z" fill="black"/>
</g>
<defs>
<clipPath id="clip0_43_902">
<rect width="33" height="33" fill="white" transform="translate(0.5)"/>
</clipPath>
</defs>
</svg>
